# xmcd
#
# Track frame offsets:
#	150
#	12790
#	22127
#	34177
#	46645
#	57147
#	66675
#	76132
#	88095
#	101100
#	113327
#	122622
#	134387
#	145440
#	157770
#	169280
#	181970
#	195297
#	205920
#	218927
#	232140
#	247387
#	260517
#	271515
#	284072
#	295815
#	308400
#	321642
#	334342
#	343930
#
# Disc length: 4711 seconds
#
# Revision: 0
# Processed by: cddbd v1.5PL3 Copyright (c) Steve Scherf et al.
# Submitted via: audiograbber 1.80
#
DISCID=c912651e
DTITLE=bob luman - Luman, 1968-1977 cd2
DYEAR=1900
DGENRE=
TTITLE0=Today I Started Lovin' You Again 
TTITLE1=I Don't Care If The Sun Don't Shine 
TTITLE2=I'm A Lonesome Fugitive 
TTITLE3=What'd I Say 
TTITLE4=Oh Boy 
TTITLE5=Cleanin' Up The Streets Of Memphis 
TTITLE6=Brown Eyed Handsome Man 
TTITLE7=Dynamite Woman 
TTITLE8=The Gun 
TTITLE9=Gettin' Back To Norma 
TTITLE10=Maybelline 
TTITLE11=Honky Tonk Man 
TTITLE12=Mobile Satisfaction 
TTITLE13=What About The Hurt 
TTITLE14=A Time To Remember 
TTITLE15=You're Making It Too Hard For Me To Go 
TTITLE16=Give Us One More Chance 
TTITLE17=A Sorry Excuse For A Man 
TTITLE18=Is It Any Wonder That I Love You 
TTITLE19=Your Kind Of Man 
TTITLE20=One Hundred Songs On The Jukebox 
TTITLE21=I Got A Woman 
TTITLE22=Don't Let Love Pass You By 
TTITLE23=Fraulein 
TTITLE24=Geisha Girl 
TTITLE25=Mexican Joe 
TTITLE26=Filipino Baby 
TTITLE27=Today I Started Lovin' You Again 
TTITLE28=Cleanin' Up The Streets Of Memphis 
TTITLE29=Brown Eyed Handsome Man 
EXTD=
EXTT0=
EXTT1=
EXTT2=
EXTT3=
EXTT4=
EXTT5=
EXTT6=
EXTT7=
EXTT8=
EXTT9=
EXTT10=
EXTT11=
EXTT12=
EXTT13=
EXTT14=
EXTT15=
EXTT16=
EXTT17=
EXTT18=
EXTT19=
EXTT20=
EXTT21=
EXTT22=
EXTT23=
EXTT24=
EXTT25=
EXTT26=
EXTT27=
EXTT28=
EXTT29=
PLAYORDER=
